<svg xmlns="http://www.w3.org/2000/svg" width="36" height="36">
    <defs>
        <linearGradient x1="49.8569767%" y1="99.6833333%" x2="49.8569767%" y2="-0.0141456583%" id="A">
            <stop stop-color="#ff9400" offset="0%" />
            <stop stop-color="#ff6500" offset="100%" />
        </linearGradient>
        <linearGradient x1="50.1%" y1="100.103652%" x2="50.1%" y2="0.126264045%" id="B">
            <stop stop-color="#ffbd01" offset="0%" />
            <stop stop-color="#ffe201" offset="100%" />
        </linearGradient>
    </defs>
    <g fill-rule="nonzero">
        <path
            d="M6.11 4.767L2.628 6.81C1.172 7.634 0 9.712 0 11.397v12.33c0 1.684 1.172 3.727 2.628 4.587l3.48 2.043V4.767z"
            fill="url(#A)" />
        <path
            d="M28.982 6.774L25.5 4.73v25.517l3.48-2.043c1.456-.824 2.628-2.903 2.628-4.587V11.36c0-1.684-1.172-3.727-2.628-4.587z"
            fill="url(#B)" />
        <path
            d="M12.715 34.154l.462.287c1.456.824 3.8.824 5.22 0l.462-.287v-13.26s-.888-1.54-3.1-1.54-3.1 1.54-3.1 1.54v13.26h.036z"
            fill="#ffa801" />
        <path
            d="M18.433.645c-1.456-.824-3.8-.824-5.22 0l-.462.287v13.045s.888 1.54 3.1 1.54 3.1-1.54 3.1-1.54V.896l-.497-.25z"
            fill="#ff5400" />
    </g>
</svg>